<svg xmlns="http://www.w3.org/2000/svg" viewBox="0 0 100 100" style="direction:ltr"><defs><linearGradient id="gc" x1="0" y1="0" x2="0.35" y2="1"><stop offset="0" stop-color="#7dffd9"/><stop offset="0.5" stop-color="#4fd4ff"/><stop offset="1" stop-color="#8b6bff"/></linearGradient></defs><path d="M 72 15 H 46 L 31 28 V 37 Q 31 45 41 47 L 52 50 C 74 55 78 70 62 80 C 52 86.5 38 86 27 79" fill="none" stroke="url(#gc)" stroke-width="8" stroke-linecap="round" stroke-linejoin="round"/><circle cx="72" cy="15" r="3.1" fill="#7dffd9"/><circle cx="46" cy="15" r="2.4" fill="none" stroke="#7dffd9" stroke-width="1.6"/><circle cx="31" cy="28" r="2.4" fill="none" stroke="#7dffd9" stroke-width="1.6"/><circle cx="31" cy="37" r="2.4" fill="none" stroke="#7dffd9" stroke-width="1.6"/><circle cx="23.7" cy="79.1" r="2.00" fill="#8b6bff" opacity="0.90"/><circle cx="21.1" cy="76.1" r="1.77" fill="#8b6bff" opacity="0.78"/><circle cx="17.6" cy="75.2" r="1.53" fill="#8b6bff" opacity="0.67"/><circle cx="17.3" cy="75.4" r="1.30" fill="#8b6bff" opacity="0.55"/><circle cx="14.6" cy="73.9" r="1.07" fill="#8b6bff" opacity="0.43"/><circle cx="11.1" cy="72.6" r="0.83" fill="#8b6bff" opacity="0.32"/><circle cx="6.0" cy="72.9" r="0.60" fill="#8b6bff" opacity="0.20"/></svg>